<svg width="300" height="300" viewBox="0 0 300 300" fill="none" xmlns="http://www.w3.org/2000/svg">
<rect width="300" height="300" fill="white"/>
<path d="M266.091 41.0135C281.361 56.4121 289.877 77.0185 289.785 98.7106C289.705 117.785 283.27 136.084 271.241 150.62C283.149 164.882 289.43 183.235 289.35 202.309L289.348 202.683C289.257 224.376 280.568 244.91 265.17 260.179C249.771 275.449 229.165 283.965 207.473 283.873L38.7973 283.164C22.3412 283.095 8.93371 269.574 9.00291 253.118C9.0721 236.662 22.5928 223.254 39.049 223.324L207.724 224.033C219.692 224.083 229.457 214.4 229.508 202.432L229.509 202.058C229.56 190.09 219.876 180.325 207.908 180.274L39.233 179.565C22.7768 179.496 9.36935 165.975 9.43854 149.519C9.50932 132.689 23.0285 119.655 39.4846 119.725L208.16 120.434C220.128 120.484 229.893 110.801 229.945 98.459C229.995 86.4909 220.312 76.7259 208.344 76.6756L39.6686 75.9663C23.2125 75.8971 9.80341 62.7504 9.87418 45.9202C9.94338 29.4641 23.4641 16.0566 39.9202 16.1258L208.596 16.8351C230.288 16.9263 250.822 25.6149 266.091 41.0135Z" fill="#5A5A5A"/>
<path d="M266.091 41.0135C281.361 56.4121 289.877 77.0185 289.785 98.7106C289.705 117.785 283.27 136.084 271.241 150.62C283.149 164.882 289.43 183.235 289.35 202.309L289.348 202.683C289.257 224.376 280.568 244.91 265.17 260.179C249.771 275.449 229.165 283.965 207.473 283.873L38.7973 283.164C22.3412 283.095 8.93371 269.574 9.00291 253.118C9.0721 236.662 22.5928 223.254 39.049 223.324L207.724 224.033C219.692 224.083 229.457 214.4 229.508 202.432L229.509 202.058C229.56 190.09 219.876 180.325 207.908 180.274L39.233 179.565C22.7768 179.496 9.36935 165.975 9.43854 149.519C9.50932 132.689 23.0285 119.655 39.4846 119.725L208.16 120.434C220.128 120.484 229.893 110.801 229.945 98.459C229.995 86.4909 220.312 76.7259 208.344 76.6756L39.6686 75.9663C23.2125 75.8971 9.80341 62.7504 9.87418 45.9202C9.94338 29.4641 23.4641 16.0566 39.9202 16.1258L208.596 16.8351C230.288 16.9263 250.822 25.6149 266.091 41.0135Z" fill="url(#paint0_linear_8283_15707)"/>
<defs>
<linearGradient id="paint0_linear_8283_15707" x1="-68.6798" y1="187.426" x2="396.512" y2="189.382" gradientUnits="userSpaceOnUse">
<stop stop-color="#E1FA6E"/>
<stop offset="1" stop-color="#00FFFF"/>
</linearGradient>
</defs>
</svg>
