<svg width="630" height="100" viewBox="0 0 630 100" fill="none" xmlns="http://www.w3.org/2000/svg">
<rect width="630" height="100" fill="#5A5A5A"/>
<path d="M451.153 22.7642C454.713 26.3449 456.711 31.1482 456.711 36.2136C456.711 40.6676 455.235 44.947 452.456 48.353C455.235 51.6717 456.711 55.951 456.711 60.4051V60.4924C456.711 65.5577 454.713 70.3611 451.153 73.9418C447.593 77.5225 442.816 79.5312 437.78 79.5312H398.615C394.794 79.5312 391.668 76.3871 391.668 72.5444C391.668 68.7018 394.794 65.5577 398.615 65.5577H437.78C440.559 65.5577 442.816 63.2871 442.816 60.4924V60.4051C442.816 57.6104 440.559 55.3397 437.78 55.3397H398.615C394.794 55.3397 391.668 52.1957 391.668 48.353C391.668 44.423 394.794 41.3663 398.615 41.3663H437.78C440.559 41.3663 442.816 39.0956 442.816 36.2136C442.816 33.4189 440.559 31.1482 437.78 31.1482H398.615C394.794 31.1482 391.668 28.0915 391.668 24.1615C391.668 20.3188 394.794 17.1748 398.615 17.1748H437.78C442.816 17.1748 447.593 19.1835 451.153 22.7642Z" fill="#5A5A5A"/>
<path d="M451.153 22.7642C454.713 26.3449 456.711 31.1482 456.711 36.2136C456.711 40.6676 455.235 44.947 452.456 48.353C455.235 51.6717 456.711 55.951 456.711 60.4051V60.4924C456.711 65.5577 454.713 70.3611 451.153 73.9418C447.593 77.5225 442.816 79.5312 437.78 79.5312H398.615C394.794 79.5312 391.668 76.3871 391.668 72.5444C391.668 68.7018 394.794 65.5577 398.615 65.5577H437.78C440.559 65.5577 442.816 63.2871 442.816 60.4924V60.4051C442.816 57.6104 440.559 55.3397 437.78 55.3397H398.615C394.794 55.3397 391.668 52.1957 391.668 48.353C391.668 44.423 394.794 41.3663 398.615 41.3663H437.78C440.559 41.3663 442.816 39.0956 442.816 36.2136C442.816 33.4189 440.559 31.1482 437.78 31.1482H398.615C394.794 31.1482 391.668 28.0915 391.668 24.1615C391.668 20.3188 394.794 17.1748 398.615 17.1748H437.78C442.816 17.1748 447.593 19.1835 451.153 22.7642Z" fill="url(#paint0_linear_8283_15713)"/>
<path d="M605.703 26.3535C608.626 29.2931 610.929 32.6782 612.524 36.4195C614.207 40.3391 615.004 44.5259 615.004 48.8017C615.004 53.0776 614.207 57.2644 612.524 61.1839C610.929 65.0144 608.626 68.3994 605.703 71.3391C602.869 74.1897 599.503 76.5058 595.694 78.1092C591.797 79.8017 587.634 80.6035 583.382 80.6035H555.746C551.849 80.6035 548.66 77.3966 548.66 73.477C548.66 69.5575 551.849 66.3506 555.746 66.3506H583.382C593.037 66.3506 600.832 58.5115 600.832 48.8017C600.832 39.181 593.037 31.2529 583.382 31.2529H562.832V48.8017C562.832 52.7213 559.644 55.9282 555.746 55.9282C551.849 55.9282 548.66 52.7213 548.66 48.8017V24.1264C548.66 20.2069 551.849 17 555.746 17H583.382C587.634 17 591.797 17.8908 595.694 19.4943C599.503 21.0977 602.869 23.4138 605.703 26.3535Z" fill="#F0F0F0"/>
<path d="M528.316 17C532.214 17 535.402 20.2069 535.402 24.1264V73.477C535.402 76.3276 533.719 78.9109 531.151 79.9799C530.265 80.4253 529.29 80.6035 528.316 80.6035C526.545 80.6035 524.773 79.9799 523.444 78.6437L483.231 40.6063V73.477C483.231 77.3966 480.042 80.6035 476.145 80.6035C472.247 80.6035 469.059 77.3966 469.059 73.477V24.1264C469.059 21.2759 470.742 18.7816 473.31 17.6236C475.968 16.4655 478.979 17 481.016 18.9598L521.23 56.9971V24.1264C521.23 20.2069 524.419 17 528.316 17Z" fill="#F0F0F0"/>
<path d="M366.444 51.1178L381.325 68.8448C383.894 71.8736 383.539 76.4167 380.528 78.9109C379.199 80.069 377.516 80.6035 375.922 80.6035C373.884 80.6035 371.936 79.7127 370.518 78.1092L351.917 55.9282H330.836V73.477C330.836 77.3966 327.648 80.6035 323.75 80.6035C319.853 80.6035 316.664 77.3966 316.664 73.477V24.1264C316.664 20.2069 319.853 17 323.75 17C327.648 17 330.836 20.2069 330.836 24.1264V41.6753H349.614C354.309 41.6753 358.649 39.8937 362.015 36.5977C365.292 33.2126 367.064 28.8477 367.064 24.1264C367.064 20.2069 370.253 17 374.15 17C378.047 17 381.236 20.2069 381.236 24.1264C381.236 28.4914 380.439 32.5891 378.756 36.5086C377.162 40.3391 374.859 43.7241 372.024 46.6638C370.253 48.3563 368.393 49.8707 366.444 51.1178Z" fill="#F0F0F0"/>
<path d="M272.635 31.2529C260.057 31.2529 252.528 37.8448 252.528 48.8017C252.528 59.7586 260.057 66.3506 272.635 66.3506H276.798C283.352 66.3506 288.578 64.569 292.121 61.1839C294.956 58.5115 299.385 58.6006 302.13 61.4512C304.788 64.3017 304.699 68.7558 301.865 71.5173C295.753 77.4856 287.072 80.6035 276.798 80.6035H272.635C262.36 80.6035 253.591 77.3966 247.39 71.3391C241.544 65.6379 238.355 57.6207 238.355 48.8017C238.355 39.9828 241.544 31.9655 247.39 26.2644C253.591 20.2069 262.36 17 272.635 17H276.798C287.161 17 295.842 20.2069 302.042 26.2644C304.876 29.0259 304.876 33.4799 302.219 36.3305C299.473 39.181 294.956 39.2701 292.121 36.5086C288.667 33.1236 283.352 31.2529 276.798 31.2529H272.635Z" fill="#F0F0F0"/>
<path d="M219.593 26.2644C225.439 31.9655 228.627 39.9828 228.627 48.8017C228.627 57.6207 225.439 65.6379 219.593 71.3391C213.392 77.3966 204.623 80.6035 194.348 80.6035H190.185C179.91 80.6035 171.141 77.3966 164.941 71.3391C159.095 65.6379 155.906 57.6207 155.906 48.8017C155.906 39.9828 159.095 31.9655 164.941 26.2644C171.141 20.2069 179.91 17 190.185 17H194.348C204.623 17 213.392 20.2069 219.593 26.2644ZM194.348 66.3506C206.926 66.3506 214.455 59.7586 214.455 48.8017C214.455 37.8448 206.926 31.2529 194.348 31.2529H190.185C177.607 31.2529 170.078 37.8448 170.078 48.8017C170.078 59.7586 177.607 66.3506 190.185 66.3506H194.348Z" fill="#F0F0F0"/>
<path d="M146.211 66.3506C150.108 66.3506 153.297 69.5575 153.297 73.477C153.297 77.3966 150.108 80.6035 146.211 80.6035H101.125C97.2278 80.6035 94.0391 77.3966 94.0391 73.477V24.1264C94.0391 20.2069 97.2278 17 101.125 17C105.023 17 108.211 20.2069 108.211 24.1264V66.3506H146.211Z" fill="#F0F0F0"/>
<path fill-rule="evenodd" clip-rule="evenodd" d="M81.3437 37.8143C81.3437 32.6477 79.3064 27.7482 75.6748 24.0959C72.0432 20.4436 67.1715 18.3948 62.034 18.3948H22.0861C18.1887 18.3948 15 21.6017 15 25.5212C15 25.6319 15.0024 25.742 15.0072 25.8513C15.0024 25.9641 15 26.0775 15 26.1915V50.1965V74.2057C15 74.3202 15.0025 74.4341 15.0073 74.5473C15.0025 74.6549 15 74.7631 15 74.8718C15 78.7914 18.1887 81.9983 22.0861 81.9983H22.5718C22.6312 81.9996 22.6907 82.0003 22.7504 82.0003H29.3937V81.9983H62.034C67.1715 81.9983 72.0432 79.9494 75.6748 76.2971C79.3064 72.6448 81.3437 67.7454 81.3437 62.5787V62.4896C81.3437 57.9465 79.8379 53.5816 77.0034 50.1965C79.8379 46.7224 81.3437 42.3574 81.3437 37.8143ZM29.3937 67.7454H62.034C64.8685 67.7454 67.1715 65.4293 67.1715 62.5787V62.4896C67.1715 59.639 64.8685 57.323 62.034 57.323H29.3937V67.7454ZM29.3937 43.0701H62.034C64.8685 43.0701 67.1715 40.754 67.1715 37.8143C67.1715 34.9637 64.8685 32.6477 62.034 32.6477H29.3937V43.0701Z" fill="#F0F0F0"/>
<defs>
<linearGradient id="paint0_linear_8283_15713" x1="373.567" y1="57.2811" x2="481.58" y2="57.2811" gradientUnits="userSpaceOnUse">
<stop stop-color="#E1FA6E"/>
<stop offset="1" stop-color="#00FFFF"/>
</linearGradient>
</defs>
</svg>
